<svg xmlns="http://www.w3.org/2000/svg" width="34" height="31" shape-rendering="geometricPrecision" image-rendering="optimizeQuality" fill-rule="evenodd"><path fill="#fefffe" d="M4.5-.5h9c1.797 3.614 3.797 3.614 6 0h9c2.116 2.1 3.783 4.433 5 7v5c-4.583 7.253-10.25 13.586-17 19h-1c-6.038-5.037-11.371-10.703-16-17v-9c1.333-2 3-3.667 5-5zm2 4c1.699-.16 3.366.006 5 .5 1.277 1.786 2.944 2.952 5 3.5 2.628-3.146 5.962-4.313 10-3.5 3.449 3.782 3.282 7.616-.5 11.5a120.69 120.69 0 0 1-9.5 9c-5.358-3.192-9.525-7.525-12.5-13-.977-3.317-.144-5.984 2.5-8z" opacity=".775"/></svg>